# Blender v2.76 (sub 0) OBJ File: 'three_walls.blend'
# www.blender.org
mtllib three_walls.mtl
o Ceiling
v -9.000000 16.000000 9.000000
v -9.000000 18.000000 9.000000
v -9.000000 16.000000 -9.000000
v -9.000000 18.000000 -9.000000
v 9.000000 16.000000 9.000000
v 9.000000 18.000000 9.000000
v 9.000000 16.000000 -9.000000
v 9.000000 18.000000 -9.000000
vt 1.000000 0.000000
vt 1.000000 1.000000
vt 0.000000 1.000000
vt 0.000000 0.000000
vn -1.000000 0.000000 0.000000
vn 0.000000 0.000000 -1.000000
vn 1.000000 0.000000 0.000000
vn 0.000000 0.000000 1.000000
vn 0.000000 -1.000000 0.000000
vn 0.000000 1.000000 0.000000
usemtl material1
s off
f 4/1/1 3/2/1 1/3/1
f 8/1/2 7/2/2 3/3/2
f 6/1/3 5/2/3 7/3/3
f 2/1/4 1/2/4 5/3/4
f 3/1/5 7/2/5 5/3/5
f 8/1/6 4/2/6 2/3/6
f 2/4/1 4/1/1 1/3/1
f 4/4/2 8/1/2 3/3/2
f 8/4/3 6/1/3 7/3/3
f 6/4/4 2/1/4 5/3/4
f 1/4/5 3/1/5 5/3/5
f 6/4/6 8/1/6 2/3/6
o Left_Wall
v -9.000000 17.000000 7.000001
v -9.000000 -1.000000 6.999999
v -9.000000 17.000000 9.000001
v -9.000000 -1.000000 8.999999
v 9.000000 17.000000 7.000001
v 9.000000 -1.000000 6.999999
v 9.000000 17.000000 9.000001
v 9.000000 -1.000000 8.999999
vt 1.000000 0.000000
vt 1.000000 1.000000
vt 0.000000 1.000000
vt 0.000000 0.000000
vn -1.000000 0.000000 0.000000
vn 0.000000 -0.000000 1.000000
vn 1.000000 0.000000 0.000000
vn 0.000000 0.000000 -1.000000
vn 0.000000 1.000000 0.000000
vn 0.000000 -1.000000 0.000000
usemtl material
s off
f 12/5/7 11/6/7 9/7/7
f 16/5/8 15/6/8 11/7/8
f 14/5/9 13/6/9 15/7/9
f 10/5/10 9/6/10 13/7/10
f 11/5/11 15/6/11 13/7/11
f 16/5/12 12/6/12 10/7/12
f 10/8/7 12/5/7 9/7/7
f 12/8/8 16/5/8 11/7/8
f 16/8/9 14/5/9 15/7/9
f 14/8/10 10/5/10 13/7/10
f 9/8/11 11/5/11 13/7/11
f 14/8/12 16/5/12 10/7/12
o Right_Wall
v 9.000001 15.999999 -7.000000
v 8.999999 -0.000001 -7.000000
v 9.000001 15.999999 -9.000000
v 8.999999 -0.000001 -9.000000
v -8.999999 16.000000 -7.000000
v -9.000001 0.000001 -7.000000
v -8.999999 16.000000 -9.000000
v -9.000001 0.000001 -9.000000
vt 1.000000 0.000000
vt 1.000000 1.000000
vt 0.000000 1.000000
vt 0.000000 0.000000
vn 1.000000 -0.000000 0.000000
vn 0.000000 0.000000 -1.000000
vn -1.000000 0.000000 0.000000
vn 0.000000 0.000000 1.000000
vn 0.000000 1.000000 0.000000
vn -0.000000 -1.000000 0.000000
usemtl material3
s off
f 20/9/13 19/10/13 17/11/13
f 20/12/14 24/9/14 23/10/14
f 22/9/15 21/10/15 23/11/15
f 18/9/16 17/10/16 21/11/16
f 19/9/17 23/10/17 21/11/17
f 24/9/18 20/10/18 18/11/18
f 18/12/13 20/9/13 17/11/13
f 19/11/14 20/12/14 23/10/14
f 24/12/15 22/9/15 23/11/15
f 22/12/16 18/9/16 21/11/16
f 17/12/17 19/9/17 21/11/17
f 22/12/18 24/9/18 18/11/18
o Floor
v -9.000000 -2.000000 9.000000
v -9.000000 0.000000 9.000000
v -9.000000 -2.000000 -9.000000
v -9.000000 0.000000 -9.000000
v 9.000000 -2.000000 9.000000
v 9.000000 0.000000 9.000000
v 9.000000 -2.000000 -9.000000
v 9.000000 0.000000 -9.000000
vt 1.000000 0.000000
vt 1.000000 1.000000
vt 0.000000 1.000000
vt 0.000000 0.000000
vn -1.000000 0.000000 0.000000
vn 0.000000 0.000000 -1.000000
vn 1.000000 0.000000 0.000000
vn 0.000000 0.000000 1.000000
vn 0.000000 -1.000000 0.000000
vn 0.000000 1.000000 0.000000
usemtl material2
s off
f 28/13/19 27/14/19 25/15/19
f 32/13/20 31/14/20 27/15/20
f 30/13/21 29/14/21 31/15/21
f 26/13/22 25/14/22 29/15/22
f 27/13/23 31/14/23 29/15/23
f 32/13/24 28/14/24 26/15/24
f 26/16/19 28/13/19 25/15/19
f 28/16/20 32/13/20 27/15/20
f 32/16/21 30/13/21 31/15/21
f 30/16/22 26/13/22 29/15/22
f 25/16/23 27/13/23 29/15/23
f 30/16/24 32/13/24 26/15/24
o Front_Wall
v -9.000000 17.000000 -8.999999
v -9.000000 -0.999999 -9.000001
v -9.000000 17.000000 9.000001
v -9.000000 -1.000001 8.999999
v -7.000000 17.000000 -8.999999
v -7.000000 -0.999999 -9.000001
v -7.000000 17.000000 9.000001
v -7.000000 -1.000001 8.999999
vt 0.000000 0.000000
vt 1.000000 0.000000
vt 1.000000 1.000000
vt 0.000000 1.000000
vn -1.000000 0.000000 0.000000
vn 0.000000 -0.000000 1.000000
vn 1.000000 0.000000 0.000000
vn 0.000000 0.000000 -1.000000
vn 0.000000 1.000000 0.000000
vn 0.000000 -1.000000 -0.000000
usemtl material4
s off
f 34/17/25 36/18/25 35/19/25
f 40/18/26 39/19/26 35/20/26
f 38/18/27 37/19/27 39/20/27
f 34/18/28 33/19/28 37/20/28
f 35/18/29 39/19/29 37/20/29
f 40/18/30 36/19/30 34/20/30
f 33/20/25 34/17/25 35/19/25
f 36/17/26 40/18/26 35/20/26
f 40/17/27 38/18/27 39/20/27
f 38/17/28 34/18/28 37/20/28
f 33/17/29 35/18/29 37/20/29
f 38/17/30 40/18/30 34/20/30
